<?xml version="1.0" encoding="UTF-8"?>
<svg width="115px" height="71px" viewBox="0 0 115 71" version="1.1" xmlns="http://www.w3.org/2000/svg" xmlns:xlink="http://www.w3.org/1999/xlink">
    <title>Table 3</title>
    <defs>
        <rect id="path-1" x="9" y="9" width="97" height="53" rx="12"></rect>
        <filter x="-9.3%" y="-17.0%" width="118.6%" height="134.0%" filterUnits="objectBoundingBox" id="filter-2">
            <feMorphology radius="0.5" operator="dilate" in="SourceAlpha" result="shadowSpreadOuter1"></feMorphology>
            <feOffset dx="0" dy="0" in="shadowSpreadOuter1" result="shadowOffsetOuter1"></feOffset>
            <feGaussianBlur stdDeviation="2.5" in="shadowOffsetOuter1" result="shadowBlurOuter1"></feGaussianBlur>
            <feColorMatrix values="0 0 0 0 0   0 0 0 0 0   0 0 0 0 0  0 0 0 0.5 0" type="matrix" in="shadowBlurOuter1"></feColorMatrix>
        </filter>
    </defs>
    <g id="POS---Main-Views" stroke="none" stroke-width="1" fill="none" fill-rule="evenodd">
        <g id="Table-View---Seated" transform="translate(-490.000000, -591.000000)">
            <g id="Main-Area" transform="translate(366.000000, 113.000000)">
                <g id="Table-3" transform="translate(124.000000, 478.000000)">
                    <rect id="Seat-1" fill="#D8D8D8" opacity="0.756324405" x="22" y="0" width="26" height="18" rx="7"></rect>
                    <rect id="Seat-1" fill="#D8D8D8" opacity="0.756324405" x="67" y="0" width="26" height="18" rx="7"></rect>
                    <path d="M100,26.5 L112,26.5 C115.865993,26.5 119,29.6340068 119,33.5 L119,37.5 C119,41.3659932 115.865993,44.5 112,44.5 L100,44.5 C96.1340068,44.5 93,41.3659932 93,37.5 L93,33.5 C93,29.6340068 96.1340068,26.5 100,26.5 Z" id="Seat-2" fill="#D8D8D8" opacity="0.761835007" transform="translate(106.000000, 35.500000) rotate(90.000000) translate(-106.000000, -35.500000) "></path>
                    <rect id="Seat-3" fill="#D8D8D8" opacity="0.760044643" x="22" y="53" width="26" height="18" rx="7"></rect>
                    <rect id="Seat-3" fill="#D8D8D8" opacity="0.760044643" x="67" y="53" width="26" height="18" rx="7"></rect>
                    <path d="M3,26.5 L15,26.5 C18.8659932,26.5 22,29.6340068 22,33.5 L22,37.5 C22,41.3659932 18.8659932,44.5 15,44.5 L3,44.5 C-0.865993249,44.5 -4,41.3659932 -4,37.5 L-4,33.5 C-4,29.6340068 -0.865993249,26.5 3,26.5 Z" id="Seat-4" fill="#D8D8D8" opacity="0.757905506" transform="translate(9.000000, 35.500000) rotate(90.000000) translate(-9.000000, -35.500000) "></path>
                    <g id="Rectangle">
                        <use fill="black" fill-opacity="1" filter="url(#filter-2)" xlink:href="#path-1"></use>
                        <use fill="#FFFFFF" fill-rule="evenodd" xlink:href="#path-1"></use>
                    </g>
                    <text id="14" font-family="HelveticaNowText-Medium, Helvetica Now Text" font-size="17" font-weight="400" letter-spacing="-0.378857129" fill="#646464">
                        <tspan x="49" y="41.5">14</tspan>
                    </text>
                </g>
            </g>
        </g>
    </g>
</svg>