<?xml version="1.0" encoding="UTF-8"?>
<svg width="67px" height="68px" viewBox="0 0 67 68" version="1.1" xmlns="http://www.w3.org/2000/svg" xmlns:xlink="http://www.w3.org/1999/xlink">
    <title>Table 2</title>
    <defs>
        <rect id="path-1" x="8.49295775" y="8.49295775" width="50.0140845" height="50.0140845" rx="11.51172"></rect>
        <filter x="-21.0%" y="-21.0%" width="142.0%" height="142.0%" filterUnits="objectBoundingBox" id="filter-2">
            <feMorphology radius="0.5" operator="dilate" in="SourceAlpha" result="shadowSpreadOuter1"></feMorphology>
            <feOffset dx="0" dy="0" in="shadowSpreadOuter1" result="shadowOffsetOuter1"></feOffset>
            <feGaussianBlur stdDeviation="3" in="shadowOffsetOuter1" result="shadowBlurOuter1"></feGaussianBlur>
            <feColorMatrix values="0 0 0 0 0   0 0 0 0 0   0 0 0 0 0  0 0 0 0.5 0" type="matrix" in="shadowBlurOuter1"></feColorMatrix>
        </filter>
    </defs>
    <g id="POS---Main-Views" stroke="none" stroke-width="1" fill="none" fill-rule="evenodd">
        <g id="Table-View---Seated" transform="translate(-39.000000, -203.000000)">
            <g id="Sidebar-RHS" transform="translate(-2.500000, 21.000000)">
                <g id="Void" transform="translate(16.500000, 157.000000)">
                    <g id="Table-2" transform="translate(25.000000, 25.500000)">
                        <rect id="Seat-1" fill="#D8D8D8" opacity="0.756324405" x="21.2323944" y="0" width="24.5352113" height="16.9859155" rx="6.71517"></rect>
                        <path d="M52.9546066,25.4788732 L64.0594779,25.4788732 C67.7681639,25.4788732 70.7746479,28.4853573 70.7746479,32.1940432 L70.7746479,35.7496187 C70.7746479,39.4583047 67.7681639,42.4647887 64.0594779,42.4647887 L52.9546066,42.4647887 C49.2459206,42.4647887 46.2394366,39.4583047 46.2394366,35.7496187 L46.2394366,32.1940432 C46.2394366,28.4853573 49.2459206,25.4788732 52.9546066,25.4788732 Z" id="Seat-2" fill="#D8D8D8" opacity="0.761835007" transform="translate(58.507042, 33.971831) rotate(90.000000) translate(-58.507042, -33.971831) "></path>
                        <rect id="Seat-3" fill="#D8D8D8" opacity="0.760044643" x="21.2323944" y="50.0140845" width="24.5352113" height="16.9859155" rx="6.71517"></rect>
                        <path d="M2.94052211,25.4788732 L14.0453934,25.4788732 C17.7540794,25.4788732 20.7605634,28.4853573 20.7605634,32.1940432 L20.7605634,35.7496187 C20.7605634,39.4583047 17.7540794,42.4647887 14.0453934,42.4647887 L2.94052211,42.4647887 C-0.768163871,42.4647887 -3.77464789,39.4583047 -3.77464789,35.7496187 L-3.77464789,32.1940432 C-3.77464789,28.4853573 -0.768163871,25.4788732 2.94052211,25.4788732 Z" id="Seat-4" fill="#D8D8D8" opacity="0.757905506" transform="translate(8.492958, 33.971831) rotate(90.000000) translate(-8.492958, -33.971831) "></path>
                        <g id="Rectangle">
                            <use fill="black" fill-opacity="1" filter="url(#filter-2)" xlink:href="#path-1"></use>
                            <use fill="#FFFFFF" fill-rule="evenodd" xlink:href="#path-1"></use>
                        </g>
                        <text id="1" font-family="HelveticaNowText-Medium, Helvetica Now Text" font-size="19.1862" font-weight="400" letter-spacing="-0.427578139" fill="#2B2B2B">
                            <tspan x="28.8590395" y="40.5883224">1</tspan>
                        </text>
                    </g>
                </g>
            </g>
        </g>
    </g>
</svg>