<?xml version="1.0" encoding="UTF-8"?>
<svg width="74px" height="70px" viewBox="0 0 74 70" version="1.1" xmlns="http://www.w3.org/2000/svg" xmlns:xlink="http://www.w3.org/1999/xlink">
    <title>Plant</title>
    <g id="POS---Main-Views" stroke="none" stroke-width="1" fill="none" fill-rule="evenodd">
        <g id="Table-View---Seated" transform="translate(-31.000000, -616.000000)">
            <g id="Sidebar-RHS" transform="translate(-2.500000, 21.000000)">
                <g id="Void" transform="translate(16.500000, 157.000000)">
                    <g id="Plant" transform="translate(17.556135, 438.918485)">
                        <ellipse id="Oval" stroke="#979797" stroke-width="1.365" fill="#D8D8D8" cx="39.8223291" cy="39.632457" rx="21.7657946" ry="21.9179396"></ellipse>
                        <ellipse id="Oval" fill="#55A501" cx="39.8223291" cy="39.632457" rx="6.12226216" ry="6.16375625"></ellipse>
                        <g id="Leafs-1" transform="translate(23.418860, 38.249501)">
                            <rect id="Rectangle" fill-opacity="0.6" fill="#55A501" x="11.6417097" y="6.17698879" width="9.52351891" height="24.655025" rx="4.76175945"></rect>
                            <path d="M23.2217038,4.82807145 L23.2419176,4.82801222 C25.8608557,4.82033923 27.9901446,6.93718781 27.9978176,9.55612588 C27.9978447,9.56537237 27.9978448,9.57461892 27.9978178,9.58386541 L27.953744,24.6779543 C27.9460715,27.3055761 25.8178832,29.4337855 23.1902615,29.4414839 L23.1700477,29.4415431 C20.5511097,29.4492161 18.4218207,27.3323675 18.4141477,24.7134295 C18.4141206,24.704183 18.4141206,24.6949364 18.4141476,24.6856899 L18.4582213,9.59160102 C18.4658938,6.96397924 20.5940821,4.83576988 23.2217038,4.82807145 Z" id="Rectangle" fill-opacity="0.6" fill="#6DD400" transform="translate(23.205983, 17.134778) rotate(330.000000) translate(-23.205983, -17.134778) "></path>
                            <path d="M28.6539579,0.746909819 L28.6888572,0.746793811 C31.3116586,0.738075399 33.4449269,2.85720836 33.4536453,5.48000976 C33.4536803,5.49053996 33.4536803,5.50107024 33.4536452,5.51160044 L33.4036218,20.5427296 C33.3948821,23.1688531 31.2681525,25.2955744 28.642029,25.3043039 L28.6071298,25.3044199 C25.9843284,25.3131383 23.8510601,23.1940053 23.8423417,20.5712039 C23.8423066,20.5606737 23.8423067,20.5501434 23.8423417,20.5396132 L23.8923651,5.50848406 C23.9011048,2.8823606 26.0278344,0.755639274 28.6539579,0.746909819 Z" id="Rectangle" fill-opacity="0.6" fill="#55A501" transform="translate(28.647993, 13.025607) rotate(310.000000) translate(-28.647993, -13.025607) "></path>
                            <path d="M32.0368549,-5.3851455 L32.0679547,-5.38518132 C34.7064933,-5.3882195 36.8479144,-3.25172425 36.8509526,-0.613185602 C36.8509568,-0.609506514 36.8509568,-0.605827422 36.8509526,-0.602148334 L36.8336413,14.336886 C36.8305887,16.9711153 34.6958749,19.1058135 32.0616456,19.1088467 L32.0305458,19.1088825 C29.3920071,19.1119207 27.250586,16.9754254 27.2475478,14.3368868 C27.2475436,14.3332077 27.2475436,14.3295286 27.2475479,14.3258495 L27.2648592,-0.61318482 C27.2679117,-3.24741415 29.4026255,-5.38211228 32.0368549,-5.3851455 Z" id="Rectangle" fill-opacity="0.6" fill="#6DD400" transform="translate(32.049250, 6.861851) rotate(100.000000) translate(-32.049250, -6.861851) "></path>
                            <path d="M9.56916933,4.82208738 L9.58386592,4.82212549 C12.2127486,4.82894172 14.3421761,6.95839316 14.3489628,9.58727592 L14.3879578,24.6923055 C14.3947201,27.311747 12.2767252,29.4407058 9.65728379,29.4474681 C9.6491032,29.4474892 9.64092256,29.4474892 9.63274197,29.447468 L9.61804538,29.4474299 C6.98916269,29.4406136 4.85973517,27.3111622 4.85294847,24.6822794 L4.81395347,9.57724982 C4.80719115,6.95780837 6.92518606,4.82884957 9.54462751,4.82208724 C9.5528081,4.82206612 9.56098873,4.82206617 9.56916933,4.82208738 Z" id="Rectangle" fill-opacity="0.62" fill="#6DD400" transform="translate(9.600956, 17.134778) rotate(25.000000) translate(-9.600956, -17.134778) "></path>
                        </g>
                        <g id="Leafs-2" transform="translate(24.590726, 38.055483) rotate(120.000000) translate(-24.590726, -38.055483) translate(2.110581, 22.639476)">
                            <rect id="Rectangle" fill-opacity="0.6" fill="#55A501" x="11.6417097" y="6.17698879" width="9.52351891" height="24.655025" rx="4.76175945"></rect>
                            <path d="M23.2217038,4.82807145 L23.2419176,4.82801222 C25.8608557,4.82033923 27.9901446,6.93718781 27.9978176,9.55612588 C27.9978447,9.56537237 27.9978448,9.57461892 27.9978178,9.58386541 L27.953744,24.6779543 C27.9460715,27.3055761 25.8178832,29.4337855 23.1902615,29.4414839 L23.1700477,29.4415431 C20.5511097,29.4492161 18.4218207,27.3323675 18.4141477,24.7134295 C18.4141206,24.704183 18.4141206,24.6949364 18.4141476,24.6856899 L18.4582213,9.59160102 C18.4658938,6.96397924 20.5940821,4.83576988 23.2217038,4.82807145 Z" id="Rectangle" fill-opacity="0.6" fill="#6DD400" transform="translate(23.205983, 17.134778) rotate(330.000000) translate(-23.205983, -17.134778) "></path>
                            <path d="M28.6539579,0.746909819 L28.6888572,0.746793811 C31.3116586,0.738075399 33.4449269,2.85720836 33.4536453,5.48000976 C33.4536803,5.49053996 33.4536803,5.50107024 33.4536452,5.51160044 L33.4036218,20.5427296 C33.3948821,23.1688531 31.2681525,25.2955744 28.642029,25.3043039 L28.6071298,25.3044199 C25.9843284,25.3131383 23.8510601,23.1940053 23.8423417,20.5712039 C23.8423066,20.5606737 23.8423067,20.5501434 23.8423417,20.5396132 L23.8923651,5.50848406 C23.9011048,2.8823606 26.0278344,0.755639274 28.6539579,0.746909819 Z" id="Rectangle" fill-opacity="0.6" fill="#55A501" transform="translate(28.647993, 13.025607) rotate(310.000000) translate(-28.647993, -13.025607) "></path>
                            <path d="M32.0368549,-5.3851455 L32.0679547,-5.38518132 C34.7064933,-5.3882195 36.8479144,-3.25172425 36.8509526,-0.613185602 C36.8509568,-0.609506514 36.8509568,-0.605827422 36.8509526,-0.602148334 L36.8336413,14.336886 C36.8305887,16.9711153 34.6958749,19.1058135 32.0616456,19.1088467 L32.0305458,19.1088825 C29.3920071,19.1119207 27.250586,16.9754254 27.2475478,14.3368868 C27.2475436,14.3332077 27.2475436,14.3295286 27.2475479,14.3258495 L27.2648592,-0.61318482 C27.2679117,-3.24741415 29.4026255,-5.38211228 32.0368549,-5.3851455 Z" id="Rectangle" fill-opacity="0.6" fill="#6DD400" transform="translate(32.049250, 6.861851) rotate(100.000000) translate(-32.049250, -6.861851) "></path>
                            <path d="M9.56916933,4.82208738 L9.58386592,4.82212549 C12.2127486,4.82894172 14.3421761,6.95839316 14.3489628,9.58727592 L14.3879578,24.6923055 C14.3947201,27.311747 12.2767252,29.4407058 9.65728379,29.4474681 C9.6491032,29.4474892 9.64092256,29.4474892 9.63274197,29.447468 L9.61804538,29.4474299 C6.98916269,29.4406136 4.85973517,27.3111622 4.85294847,24.6822794 L4.81395347,9.57724982 C4.80719115,6.95780837 6.92518606,4.82884957 9.54462751,4.82208724 C9.5528081,4.82206612 9.56098873,4.82206617 9.56916933,4.82208738 Z" id="Rectangle" fill-opacity="0.62" fill="#6DD400" transform="translate(9.600956, 17.134778) rotate(25.000000) translate(-9.600956, -17.134778) "></path>
                        </g>
                        <g id="Leafs-3" transform="translate(48.297005, 27.176380) rotate(240.000000) translate(-48.297005, -27.176380) translate(25.816859, 11.760373)">
                            <rect id="Rectangle" fill-opacity="0.6" fill="#55A501" x="11.6417097" y="6.17698879" width="9.52351891" height="24.655025" rx="4.76175945"></rect>
                            <path d="M23.2217038,4.82807145 L23.2419176,4.82801222 C25.8608557,4.82033923 27.9901446,6.93718781 27.9978176,9.55612588 C27.9978447,9.56537237 27.9978448,9.57461892 27.9978178,9.58386541 L27.953744,24.6779543 C27.9460715,27.3055761 25.8178832,29.4337855 23.1902615,29.4414839 L23.1700477,29.4415431 C20.5511097,29.4492161 18.4218207,27.3323675 18.4141477,24.7134295 C18.4141206,24.704183 18.4141206,24.6949364 18.4141476,24.6856899 L18.4582213,9.59160102 C18.4658938,6.96397924 20.5940821,4.83576988 23.2217038,4.82807145 Z" id="Rectangle" fill-opacity="0.6" fill="#6DD400" transform="translate(23.205983, 17.134778) rotate(330.000000) translate(-23.205983, -17.134778) "></path>
                            <path d="M28.6539579,0.746909819 L28.6888572,0.746793811 C31.3116586,0.738075399 33.4449269,2.85720836 33.4536453,5.48000976 C33.4536803,5.49053996 33.4536803,5.50107024 33.4536452,5.51160044 L33.4036218,20.5427296 C33.3948821,23.1688531 31.2681525,25.2955744 28.642029,25.3043039 L28.6071298,25.3044199 C25.9843284,25.3131383 23.8510601,23.1940053 23.8423417,20.5712039 C23.8423066,20.5606737 23.8423067,20.5501434 23.8423417,20.5396132 L23.8923651,5.50848406 C23.9011048,2.8823606 26.0278344,0.755639274 28.6539579,0.746909819 Z" id="Rectangle" fill-opacity="0.6" fill="#55A501" transform="translate(28.647993, 13.025607) rotate(310.000000) translate(-28.647993, -13.025607) "></path>
                            <path d="M32.0368549,-5.3851455 L32.0679547,-5.38518132 C34.7064933,-5.3882195 36.8479144,-3.25172425 36.8509526,-0.613185602 C36.8509568,-0.609506514 36.8509568,-0.605827422 36.8509526,-0.602148334 L36.8336413,14.336886 C36.8305887,16.9711153 34.6958749,19.1058135 32.0616456,19.1088467 L32.0305458,19.1088825 C29.3920071,19.1119207 27.250586,16.9754254 27.2475478,14.3368868 C27.2475436,14.3332077 27.2475436,14.3295286 27.2475479,14.3258495 L27.2648592,-0.613184821 C27.2679117,-3.24741415 29.4026255,-5.38211228 32.0368549,-5.3851455 Z" id="Rectangle" fill-opacity="0.6" fill="#6DD400" transform="translate(32.049250, 6.861851) rotate(100.000000) translate(-32.049250, -6.861851) "></path>
                            <path d="M9.56916933,4.82208738 L9.58386592,4.82212549 C12.2127486,4.82894172 14.3421761,6.95839316 14.3489628,9.58727592 L14.3879578,24.6923055 C14.3947201,27.311747 12.2767252,29.4407058 9.65728379,29.4474681 C9.6491032,29.4474892 9.64092256,29.4474892 9.63274197,29.447468 L9.61804538,29.4474299 C6.98916269,29.4406136 4.85973517,27.3111622 4.85294847,24.6822794 L4.81395347,9.57724982 C4.80719115,6.95780837 6.92518606,4.82884957 9.54462751,4.82208724 C9.5528081,4.82206612 9.56098873,4.82206617 9.56916933,4.82208738 Z" id="Rectangle" fill-opacity="0.62" fill="#6DD400" transform="translate(9.600956, 17.134778) rotate(25.000000) translate(-9.600956, -17.134778) "></path>
                        </g>
                    </g>
                </g>
            </g>
        </g>
    </g>
</svg>